<svg xmlns="http://www.w3.org/2000/svg" version="1.1" xmlns:xlink="http://www.w3.org/1999/xlink" xmlns:svgjs="http://svgjs.dev/svgjs" width="1964.01" height="1867.34"><svg id="SvgjsSvg1137" data-name="Layer 1" xmlns="http://www.w3.org/2000/svg" viewBox="0 0 1964.01 1867.34">
  <path d="M1667.39,1253.98c2.74-1.69,2.65-3.83,2.98-6.62,7.32-62.41-16.03-148.03,21.38-203.24,45.67-67.42,159.65-81.7,234.58-74.02,6.11.63,19.95,2.09,21.96,8.76,2.76,9.21-.11,37.6.29,49.62,2.86,86.01,14.39,261.31-25.8,334.97-44.1,80.83-124.83,64.33-203.46,61.32-9.37-.36-39.29,2.01-45.2-.87-3.17-1.55-3.52-4.52-3.92-7.6-2.42-18.76,3.33-45.65.09-63.45-.98-5.36-5.83-6.21-10.53-6.75l-1650.79-.28c-3.82-1.28-4.74-6.65-5.15-10.21-.94-8.13-.76-74.21.98-77.8.78-1.61,2.52-2.94,4.24-3.44l256.55-2.15c9.07-5.72,1.25-51.48-1.17-62.02-17.16-74.64-80.34-126.87-155.96-133.94-15.7-1.47-33.92,7.2-35.58-12.42-1.64-19.49-2.15-61.77.04-80.75,1.47-12.74,7.26-10.94,18.26-10.5,32.75,1.31,68.9,9.74,99.36,21.58,113.37,44.06,175.25,156.54,166.47,276.62l6.95,3c105.9-4.3,217.19,6.4,322.47.28,3.92-.23,23.94-2.39,24.96-3.84,4.73-35.79,7.19-76.25,4.7-112.37-2.36-34.29-19.34-75.05-58.94-79.05-35.96-3.64-79.84-1.18-116.62-.56-15.92.27-31.54-.29-47.24-2.84-5.37-3.69-5.21-34.47-5.26-42.45-.08-12.08-1.29-24.26,3.86-36.93l4.81-1.84c59.72,1.71,122.69-3.99,182.05-.58,63.17,3.63,127.66,38.42,135.04,106.86,4.85,45,2.06,92.81,6.01,137.98.51,5.81,2.15,29.11,4.28,31.24l3.22,1.53,164.46-.94c3.16-3.08,4.2-6.35,4.7-10.66,4.38-37.82-2.83-78.87-1.27-116.85.15-3.54.79-7.9,3.61-10.37h95.02l.54,10.03.9,127.73c3.09,3.46,7.19,3.53,11.45,3.91,32.41,2.9,70.07-1.65,102.97-.93l3.82-2.35,2.7-208.01c3.09-3.46,7.19-3.53,11.45-3.91,27.5-2.46,59.62,1.3,87.54.95,3.92,1.29,6,3.37,5.77,7.67,3.98,62.57-5.67,132.4-.2,194.1.53,6,.95,12.56,8.62,12.5l116.27-1.06,3.44-4.24.77-423.51c2.45-8.3,21.51-5.21,28.43-4.24,4.76,5.1,4.18,11.74,8,18.87,1.92,3.58,12.62,18.66,15.98,18.66,6.58,0,22.11-30.4,23.92-37.6,6.84-.88,26.72-3.48,29.85,2.95l1.94,426.19c.42.91,3.48,3.87,3.81,3.87h105.59ZM1793.83,1076.12c-24.4,24.39-16.32,64.22-15.97,94.27.46,39.05-2.7,78.57-2.08,117.29.13,8.16,2.29,34.91,4.28,41.78,2.79,9.59,21.16,6.57,28.42,4.18,21.83-7.19,29.23-28.69,30.81-49.82,3.85-51.45-3.1-107.56.02-159.51l-4.76-58.59c-12.85-5.63-31.21.91-40.72,10.41Z" style="fill: #21a34a;"></path>
  <path d="M633.55,6.07h3.83s-1.91,7.68-1.91,7.68c-78.87,103.34,38.93,241.08,149.11,176.95,35.65-20.75,50.24-53.34,58.26-92.46,1.94-.83,3.82,4.48,3.82,4.79v40.32c0,1.66-5.13,17.39-6.22,20.65-17.81,53.03-64.89,82.24-118.54,89.78,5.4,18.4,11.94,30.75,2.67,49.68-3.38,6.91-14.84,14.48-14.32,20.25.29,3.27,17.81,16.48,22.25,24.03,13.22,22.5,10.79,54.23-7.67,73.08-3.62,3.7-14.55,8.2-14.58,12.39-.03,3.64,22.63,17.89,27.78,24.19,16.77,20.53,17.65,54.36,3.85,76.46-11.56,18.52-28.76,18.18-.19,31.22,192.8,88.07,477.6,160.97,561.46,377.35,3.83,9.89,19.89,56.47,15.53,63.59l-100.99.75c-7.11-3.05-16.54-29.66-21.29-38.23-38.43-69.35-77.69-105.17-146.18-143.71-113.69-63.97-236.29-116.8-356.2-168.07-6.6-.75-12.21,2.85-18.15,4.99-24.75,8.91-51.01,23.39-75.56,33.87-141.57,60.42-259.92,101.66-368.75,216.81-6.28,6.65-24.9,34.06-31.34,35.95-5.4,1.59-36.86-11.89-46.54-14.15-6.47-1.51-15.97-3.65-22.35-4.53-8.13-1.12-29.31,1.16-35.37-3.02-5.64-3.89,6.42-24.09,9.33-29.19,44.94-78.83,186.57-172.6,267.15-214.73,72.27-37.8,148.81-62.76,222.12-96.57,8.56-3.95,52.83-25.45,55.4-31.09,2.98-6.54-5.96-10.45-9.5-15.49-19.66-27.98-20-59.27,1.73-86.25,2.85-3.53,20.38-17.97,18.25-21.06-37.62-11.5-40.88-66.72-15.41-91.29,4.24-4.09,17.97-9.59,19.03-13.75,1.31-5.14-10.76-16.8-13.56-24.23-4.49-11.96-4.76-22.11-1.03-34.38,2.46-8.09,15.05-21,9.09-27.44-71.49-32.32-106.59-113.3-68.21-185.28,10.84-20.33,23.75-37.57,43.23-49.88Z" style="fill: #22a34a;"></path>
  <path d="M575.48,1634.6c1.37,1.32,5.3,11.11,6.32,13.83,13.19,34.99,20.8,85.18,36.26,117.32,1.02,2.12,1.78,5.37,4.9,4.66l41.79-135.8c4.1-3.86,56.42-3.71,61.71-.31,2.06,1.32,3.34,3.23,4.05,5.55l35.38,125.89,4.9,4.7,44.22-134.36c4.44-5.39,57.15-5.56,61.56-2.14l2.73,5.04-76.76,218.86c-1.6,1.6-3.53,3.2-5.72,3.88-6.46,2.01-41.04,1.83-49.09.9-3.71-.43-6.89-.96-9.5-3.94l-42.3-132.37c-3.25,2.55-4.02,6.37-5.34,9.98-12.81,35.04-18.65,77.92-31.56,112.43-8.42,22.51-21.48,18.51-39.92,18.11-9.14-.2-19.97.04-28.83-8.04l-75.86-218.02.34-6.39c1.96-3.14,56.5-3.8,60.68.23Z" style="fill: #23408c;"></path>
  <path d="M1961.63,1860.2c-8.72,5.88-18.65,2.57-26.72,2.6-8.88.03-21.77,2.81-30.91-2.14-6.81-3.68.59-26.86-8.12-24.96-48.47,52.38-134.72,35.79-163.9-28.12-18.54-40.6-15.73-106.81,12.37-142.59,27.72-35.31,79.74-46.71,120.51-28.68,5.96,2.63,26.78,17.61,29.95,15.01l3.88-102.68c2.06-1.52,4.38-2.31,6.9-2.7,8.97-1.39,40.69-1.39,49.66,0,3.95.61,8.29,2.13,8.77,6.59l-2.38,307.68ZM1842.42,1675.17c-74.32.84-71.11,143.17-.32,143.4,73.62.24,74.89-144.24.32-143.4Z" style="fill: #24418c;"></path>
  <path d="M982.99,1655.22c7.79-1.1,12.46-8.22,19.33-12.32,52.12-31.1,131.42-15.11,138.15,53.69,3.69,37.68,3.22,115.29,0,153.57-.3,3.51-.28,7.03-2.45,10.02-3.57,3.57-52.92,3.56-58.6.96s-5.82-7.62-6.31-12.89c-3.87-42.05,3.23-90.04.16-132.63-1.52-21.09-8.16-37.26-31.67-39.36-37.98-3.39-57.74,15.76-60.62,52.81-3.22,41.31,3.33,86.1-.89,127.74-9.07,10.73-24.5,10.21-35.95,10.01-8.72-.15-21.08-.17-29.35-8.07l-.62-307.84c.65-1.97,2.23-2.89,3.98-3.7,5.1-2.38,44.7-2.32,52.38-1.45,3.6.41,7.01.99,9.59,3.85l2.88,105.61Z" style="fill: #24408c;"></path>
  <path d="M348.98,1628.88c38.74-4.11,114.29-2.17,127.75,43.98,13.12,44.99-3.98,107.72,5.6,155.67,1.68,8.42,14.33,28.67,5.31,33.09-3.55,1.74-46.94,1.75-52.38.54-11.01-2.44-8.6-14.26-15.96-20.58-29.52,18.77-53.99,27.86-89.8,24.59-49.37-4.51-85.22-50.05-59.79-97.7,22.74-42.61,87.07-38.54,127.72-50.83,15.49-4.68,22.16-10.31,13.83-27.3s-49.65-18.45-64.43-9.86c-8.64,5.02-14.76,21.38-21.8,22.4-5.39.78-33.97-4.41-41.3-5.94-20.24-4.23-12.64-14.38-4.44-28.33,14.59-24.82,41.76-36.76,69.71-39.72ZM412.51,1755.32c-3.04-1.91-42.38,7.25-48.94,9.09-18.01,5.04-40.81,12.78-33.97,36.4,11,37.99,78.9,23.99,84.59-14.57.74-5.03,1.58-28.86-1.68-30.91Z" style="fill: #23408c;"></path>
  <path d="M1410.61,1797.76c10.11,8.37-20.34,39.93-27.31,45.65-35.37,29.05-101.13,30.04-140.91,10.27-46.43-23.08-60.34-75.66-55.69-124.31,13.55-141.79,236.14-137.28,232.15,22.73-.27,10.81-4.56,13.67-14.39,14.56-45.7,4.17-97.69-3.29-144.08-.09l-4.53,3.15c-1.9,35.66,39.31,61.81,71.41,46.45,14.21-6.8,14.37-19.8,25.98-27.48l57.37,9.07ZM1301.29,1674.85c-18.43.97-36.41,13.16-42.41,30.71-3.01,8.82-7.67,20.99,5.25,22.71,16.05,2.13,58.25,1.5,75.05,0,12.18-1.08,13.86-3.6,11.51-15.54-4.54-23.12-25.95-39.12-49.41-37.88Z" style="fill: #23408c;"></path>
  <path d="M1675.57,1797.76c6.77,6.55-12.33,32.26-17.79,37.91-38.28,39.63-124.95,41.44-166.97,7.65-45.6-36.67-50.66-115.94-22.44-164.43,42.03-72.22,166.72-67.64,202.26,9.57,9.91,21.54,14.49,50.33,11.34,73.48-4.04,3.62-9.35,4.23-14.5,4.7-31.15,2.86-73.5.45-105.75,0-12.96-.18-27.06-5.35-40.36,1.71-6.2,41.4,53.48,70.42,81.8,39.58,6.27-6.83,6.77-17.12,16.45-19.7,8.47,3.73,52.22,5.91,55.95,9.52ZM1616.24,1725.99c4.86-55.13-72.87-70.87-92.23-20.24-3.42,8.94-7.77,20.82,5.07,22.52,17.34,2.3,58.61,1.33,76.97,0,3.55-.26,7.02-.61,10.2-2.28Z" style="fill: #23408c;"></path>
  <path d="M170.87,1855.85c-1.97,11.63-31.42,8.6-39.73,8.39s-22.54,2.92-29.07-6.78l-1.27-252.15c-1.78-3.2-4.33-3.5-7.6-3.92-24.51-3.16-55.9,3-80.77.15-4.87-.56-7.9-3.06-12.43-3.9v-47.04l5.67-3.93,258.27-.83c7.07,1.35,8.24,8.33,8.77,14.27.68,7.57,2.23,41.37-8.73,41.37h-90.23l-2.88,2.88v251.5Z" style="fill: #23418c;"></path>
  <path d="M1500.69,455.58c6-1.98,12.87,2.23,14.02,8.43,3.34,17.9-4.93,54.8,3.08,69.87,9.47,12.1,50.44,39.82,52.53,53.06l-.28,105.09c-8.61,9.9-18.07,19.08-27.39,28.28-3.77,3.72-12.11,7.07-12.63,12.53-.93,9.87,22.98,17.79,26.58,27.17-.62,9.62,3.37,42.87-2.44,48.61-3.55,3.51-25.9,3.07-28.87-1.95-2.75-4.66.34-18.06-2.41-26.39-2.49-7.52-13.01-17.99-18.95-23.41-4.46-.78-18.83,18.77-20.34,23.41-3.33,10.22,1.39,20.11-4.16,28.47-2.99,2.36-21.21,2.71-24.88,1.47-6.82-2.3-6.3-39.15-4.21-45.92,2.92-9.48,27.32-23.47,27.29-29.66-.03-7.22-38.35-37.01-42.65-46.93,1.16-28.58-4.59-65.37-.68-93.04.65-4.58,1.94-7.12,4.55-10.81,11.01-15.58,44.91-35.77,52.44-51.24,5.21-10.71,1.42-36.3,2.28-49.56.36-5.67,1.77-25.73,7.13-27.5ZM1500.87,576.6c-4.03.99-30.09,24.31-31.33,28.36-.4,16.1-2.41,35.21-.93,51.05,1.81,19.38,18.95,23.75,27.77,39.41,4.14,3.06,7.59,2.41,11.77-.03,2.82-1.65,26.02-26.04,26.87-28.79,1.75-13.05.61-26.32.88-39.44.18-8.91,5.2-13.95-1.07-23.93-3.95-6.29-26.65-28.43-33.96-26.64Z" style="fill: #22a44b;"></path>
  <path d="M588.91,1392.68c12.71-2.36,47.13-1.56,61.04-.55,3.42.25,18.02,2.08,19.25,3.79-.01,12.06,3.51,86.78-1.04,91.37-1.95,1.97-5.9,2.56-8.65,2.87-10.22,1.12-66.75,1.47-74.05-.9-1.57-.51-3.91-1.58-4.72-2.95-5.24-8.87,2.03-72.6-.96-87.4.29-4.48,5.27-5.5,9.14-6.22Z" style="fill: #22a44a;"></path>
  <path d="M633.55,6.07c2.81-1.78,5.2-7.49,11.51-5.75,2.28,2.01-8.28,11.71-9.59,13.43l1.91-7.67h-3.83Z" style="fill: #6da7ae;"></path>
</svg><style>@media (prefers-color-scheme: light) { :root { filter: none; } }
@media (prefers-color-scheme: dark) { :root { filter: none; } }
</style></svg>